<svg xmlns="http://www.w3.org/2000/svg" xmlns:xlink="http://www.w3.org/1999/xlink" version="1.1" id="Book" x="0px" y="0px" viewBox="0 0 2048 2048" enable-background="new 0 0 2048 2048" xml:space="preserve">
<g id="light_details">
	<path id="XMLID_6_" fill="#DDE2E8" d="M836.8 557.1c60.3-22.3 122.7-35.3 186.8-35.3c36.1 0 72.4 3.9 108 11.5l0.7 0.2 c8.6 1.9 17.2-3.6 19-12.2c1.9-8.6-3.6-17.1-12.3-19l-0.7-0.2c-37.8-8.1-76.4-12.2-114.7-12.2c-68.1 0-134.9 12.5-198.5 37.5 c-41.8 16.4-58.2 24.7-93.5 48.7h59.7C812.1 565 812.8 566 836.8 557.1z"/>
	<path id="XMLID_41_" fill="#DDE2E8" d="M1482.2 1469.3l-0.2 0.2c-60.7 64-132.3 113.6-212.8 147.5 c-77.8 32.7-160.3 49.4-245.2 49.4c-46.5 0-93-5.1-138.3-15.3c-8.6-1.9-17.2 3.5-19.1 12.1c-1.9 8.6 3.5 17.2 12.1 19.1 c47.6 10.6 96.4 16 145.3 16c89.1 0 175.8-17.4 257.6-51.9c84.6-35.6 159.9-87.7 223.6-154.9c0.1-0.1 0.1-0.2 0.2-0.2 c6.1-6.4 5.7-16.5-0.7-22.6C1498.3 1462.7 1488.3 1463 1482.2 1469.3z"/>
	<path id="XMLID_42_" fill="#DDE2E8" d="M652.9 1565.5c-4.9 7.4-2.9 17.3 4.5 22.2c10.1 6.7 20.5 13.2 31 19.4 c2.5 1.5 5.3 2.2 8.1 2.2c5.5 0 10.8-2.8 13.8-7.9c4.5-7.6 1.9-17.4-5.7-21.9c-9.9-5.8-19.8-12.1-29.5-18.4 C667.7 1556.2 657.8 1558.2 652.9 1565.5z"/>
	<path id="XMLID_43_" fill="#DDE2E8" d="M1343.5 491c9.9 5.8 19.8 12 29.5 18.4c2.7 1.8 5.8 2.7 8.8 2.7c5.2 0 10.3-2.5 13.3-7.1 c4.9-7.4 2.9-17.3-4.5-22.2c-10.1-6.7-20.5-13.2-31-19.4c-7.6-4.5-17.4-1.9-21.9 5.7C1333.3 476.7 1335.9 486.5 1343.5 491z"/>
	<path id="XMLID_44_" fill="#DDE2E8" d="M1024.2 404.4c46.4 0 92.9 5.1 138 15.2c8.6 1.9 17.2-3.5 19.1-12.1s-3.5-17.2-12.1-19.1 c-47.5-10.6-96.3-16-145-16c-89.1 0-175.8 17.4-257.6 51.9C682 459.8 606.7 512 543 579.2l-0.3 0.3c-6.1 6.4-5.8 16.5 0.6 22.6 c3.1 2.9 7 4.4 11 4.4c4.2 0 8.5-1.7 11.6-5l0.3-0.3c60.7-64 132.3-113.6 212.8-147.5C856.9 421 939.4 404.4 1024.2 404.4z"/>
	<path id="XMLID_45_" fill="#DDE2E8" d="M466 723.7c5.5 0 10.8-2.8 13.8-7.9c5.8-9.9 12-19.8 18.4-29.5c4.9-7.4 2.9-17.3-4.5-22.2 c-7.4-4.9-17.3-2.9-22.2 4.5c-6.7 10.1-13.2 20.5-19.4 31c-4.5 7.6-1.9 17.4 5.7 21.9C460.5 723 463.3 723.7 466 723.7z"/>
	<path id="XMLID_46_" fill="#DDE2E8" d="M396.3 877.9c-8.6-1.9-17.2 3.5-19.1 12.1c-10.6 47.5-16 96.4-16 145.2 c0 89.1 17.4 175.8 51.9 257.6c35.6 84.7 87.8 159.9 155 223.7l0.1 0.1c3.1 3 7.1 4.4 11.1 4.4c4.2 0 8.4-1.7 11.6-4.9 c6.1-6.4 5.9-16.5-0.5-22.6l-0.2-0.2c-64-60.7-113.6-132.3-147.5-212.8c-32.7-77.8-49.4-160.3-49.4-245.2 c0-46.5 5.1-92.9 15.2-138.2C410.3 888.4 404.9 879.9 396.3 877.9z"/>
	<path id="XMLID_47_" fill="#DDE2E8" d="M1651.9 1193c1.2 0.3 2.4 0.4 3.5 0.4c7.3 0 13.9-5.1 15.6-12.5 c10.7-47.6 16.1-96.5 16.1-145.4c0-89.1-17.4-175.8-51.9-257.6c-35.6-84.7-87.8-159.9-155-223.6l-0.4-0.4 c-6.4-6.1-16.5-5.8-22.6 0.6c-6.1 6.4-5.8 16.5 0.6 22.6l0.4 0.4c64 60.7 113.6 132.3 147.5 212.8c32.7 77.8 49.4 160.3 49.4 245.2 c0 46.5-5.1 93.1-15.3 138.4C1637.9 1182.5 1643.3 1191.1 1651.9 1193z"/>
	<path id="XMLID_49_" fill="#DDE2E8" d="M1554.2 1406.7c2.7 1.8 5.8 2.7 8.9 2.7c5.2 0 10.2-2.5 13.3-7.1 c6.7-10.1 13.2-20.5 19.4-30.9c4.5-7.6 1.9-17.4-5.7-21.9c-7.6-4.5-17.4-1.9-21.9 5.7c-5.8 9.9-12.1 19.8-18.5 29.4 C1544.9 1391.8 1546.9 1401.8 1554.2 1406.7z"/>
	<path id="XMLID_50_" fill="#DDE2E8" d="M1742.7 923.4c1.1 8 8 13.8 15.8 13.8c0.7 0 1.5-0.1 2.2-0.2c8.8-1.2 14.9-9.3 13.6-18.1 c-1.5-11-3.3-22.1-5.3-32.9c-1.6-8.7-9.9-14.4-18.6-12.8c-8.7 1.6-14.4 9.9-12.8 18.6C1739.5 902.3 1741.2 912.9 1742.7 923.4z"/>
	<path id="XMLID_51_" fill="#DDE2E8" d="M861.6 317.1c53-12.1 107.7-18.3 162.5-18.3c79.2 0 157.1 12.7 231.5 37.7 c1.7 0.6 3.4 0.8 5.1 0.8c6.7 0 12.9-4.2 15.2-10.9c2.8-8.4-1.7-17.4-10.1-20.3c-77.7-26.1-159-39.4-241.7-39.4 c-57.3 0-114.4 6.4-169.7 19.1c-8.6 2-14 10.6-12 19.2C844.4 313.7 852.9 319.1 861.6 317.1z"/>
	<path id="XMLID_52_" fill="#DDE2E8" d="M1365.5 384c9.4 5 18.7 10.3 27.9 15.7c2.6 1.5 5.4 2.2 8.1 2.2c5.5 0 10.8-2.8 13.8-7.8 c4.5-7.6 2-17.4-5.6-21.9c-9.5-5.7-19.3-11.2-29.1-16.4c-7.8-4.2-17.5-1.2-21.7 6.6C1354.8 370.1 1357.8 379.8 1365.5 384z"/>
	<path id="XMLID_53_" fill="#DDE2E8" d="M1475.6 456.4c105.1 83.7 184.9 194.4 230.6 320c2.4 6.5 8.5 10.5 15 10.5 c1.8 0 3.7-0.3 5.5-1c8.3-3 12.6-12.2 9.6-20.5c-47.7-131.2-130.9-246.8-240.7-334.1c-6.9-5.5-17-4.4-22.5 2.6 S1468.7 450.9 1475.6 456.4z"/>
	<path id="XMLID_54_" fill="#DDE2E8" d="M730.2 359.3c2.1 0 4.3-0.4 6.3-1.3c9.7-4.2 19.6-8.2 29.5-12c8.3-3.1 12.4-12.4 9.3-20.6 c-3.1-8.3-12.4-12.4-20.6-9.3c-10.3 3.9-20.7 8.1-30.8 12.5c-8.1 3.5-11.8 12.9-8.3 21C718.1 355.7 724 359.3 730.2 359.3z"/>
	<path id="XMLID_55_" fill="#DDE2E8" d="M863 1731.9c-130.4-29.6-250.1-94.9-346.2-189c-6.3-6.2-16.4-6.1-22.6 0.2 c-6.2 6.3-6.1 16.4 0.2 22.6c100.3 98.2 225.4 166.4 361.5 197.3c1.2 0.3 2.4 0.4 3.6 0.4c7.3 0 13.9-5 15.6-12.5 C877 1742.4 871.6 1733.8 863 1731.9z"/>
	<path id="XMLID_56_" fill="#DDE2E8" d="M317.3 1188.7c-12.4-53.6-18.7-108.8-18.7-164.3c0-24.4 1.2-49 3.6-73.1 c0.9-8.8-5.5-16.6-14.3-17.5c-8.8-0.9-16.6 5.5-17.5 14.3c-2.5 25.2-3.8 50.8-3.8 76.3c0 57.9 6.6 115.6 19.5 171.6 c12.6 54.4 31.3 107.5 55.6 157.8c2.8 5.7 8.5 9 14.4 9c2.3 0 4.7-0.5 7-1.6c8-3.8 11.3-13.4 7.4-21.4 C347.3 1291.5 329.3 1240.7 317.3 1188.7z"/>
	<path id="XMLID_57_" fill="#DDE2E8" d="M420 1426.3c-4.9-7.4-14.8-9.3-22.2-4.4c-7.4 4.9-9.3 14.8-4.4 22.2 c6.1 9.2 12.6 18.4 19.1 27.3c3.1 4.3 8 6.5 12.9 6.5c3.3 0 6.6-1 9.4-3.1c7.1-5.2 8.7-15.2 3.5-22.4 C432.1 1443.9 425.9 1435.1 420 1426.3z"/>
	<path id="XMLID_58_" fill="#DDE2E8" d="M993.4 1749.2c-10.6-0.4-21.3-1.1-31.9-2c-8.8-0.7-16.6 5.8-17.3 14.6 c-0.8 8.8 5.8 16.6 14.6 17.3c11 0.9 22.2 1.7 33.3 2.1c0.2 0 0.5 0 0.7 0c8.5 0 15.6-6.7 16-15.3 C1009.1 1757 1002.3 1749.6 993.4 1749.2z"/>
	<path id="XMLID_59_" fill="#DDE2E8" d="M1594.2 1498.8c-6.7-5.8-16.8-5.1-22.6 1.6c-7 8-14.2 16-21.5 23.6 c-6.1 6.4-5.8 16.5 0.6 22.6c3.1 2.9 7.1 4.4 11 4.4c4.2 0 8.5-1.7 11.6-5c7.6-8 15.2-16.3 22.5-24.7 C1601.6 1514.7 1600.9 1504.6 1594.2 1498.8z"/>
	<path id="XMLID_64_" fill="#DDE2E8" d="M348.6 717.6c2.2 1.1 4.6 1.6 6.9 1.6c6 0 11.7-3.3 14.4-9.1 C428 589.5 518.3 487.2 631 414.4c7.4-4.8 9.6-14.7 4.8-22.1c-4.8-7.4-14.7-9.6-22.1-4.8c-117.7 76-212 182.8-272.6 308.8 C337.3 704.3 340.6 713.8 348.6 717.6z"/>
	<path id="XMLID_65_" fill="#DDE2E8" d="M304.3 844.8c1.4 0.4 2.8 0.6 4.2 0.6c7 0 13.5-4.7 15.4-11.8c2.8-10.2 5.8-20.5 9.1-30.6 c2.7-8.4-1.9-17.4-10.4-20.1c-8.4-2.7-17.4 1.9-20.1 10.4c-3.4 10.5-6.6 21.3-9.5 32C290.7 833.7 295.8 842.5 304.3 844.8z"/>
	<path id="XMLID_66_" fill="#DDE2E8" d="M1476.6 1591.5c-104.9 83.8-230.6 136.7-363.5 152.9c-8.8 1.1-15 9.1-13.9 17.8 c1 8.1 7.9 14.1 15.9 14.1c0.6 0 1.3 0 2-0.1c138.8-17 270-72.2 379.6-159.7c6.9-5.5 8-15.6 2.5-22.5 C1493.6 1587.1 1483.5 1586 1476.6 1591.5z"/>
	<path id="XMLID_67_" fill="#DDE2E8" d="M1765.6 1007C1765.6 1007 1765.6 1007 1765.6 1007c-8.9 0-16.6 7.1-16.6 16v1.3 c0 134.4-36.7 265.7-106.8 379.6c-4.6 7.5-2 17.4 5.6 22c2.6 1.6 5.5 2.4 8.4 2.4c5.4 0 10.3-2.7 13.3-7.6 c73.2-118.9 111.5-256 111.5-396.4v-1.4C1781 1014.1 1774.5 1007 1765.6 1007z"/>
	<path id="XMLID_68_" fill="#DDE2E8" d="M529.8 844.9c2 0.8 4.1 1.2 6.2 1.2c6.3 0 12.2-3.7 14.8-9.8c3.9-9.4 8.2-18.8 12.7-27.9 c3.9-7.9 0.6-17.5-7.3-21.4c-7.9-3.9-17.5-0.6-21.4 7.3c-4.8 9.7-9.3 19.7-13.5 29.6C517.8 832.2 521.7 841.5 529.8 844.9z"/>
	<path id="XMLID_69_" fill="#DDE2E8" d="M1251.4 574.9c2.3 1.1 4.7 1.7 7.1 1.7c5.9 0 11.6-3.3 14.4-8.9c3.9-7.9 0.6-17.5-7.3-21.4 c-9.7-4.8-19.6-9.3-29.6-13.5c-8.2-3.4-17.5 0.4-20.9 8.6c-3.4 8.1 0.4 17.5 8.6 20.9C1232.9 566.1 1242.3 570.4 1251.4 574.9z"/>
	<path id="XMLID_70_" fill="#DDE2E8" d="M614 1347.6c-31-39.5-49.7-78-68.2-125c-23.5-59.8-35.3-122.6-35.3-186.7 c0-36.1 3.9-72.4 11.6-108.1l0.1-0.2c1.9-8.6-3.6-17.1-12.3-19c-8.6-1.9-17.1 3.6-19 12.3l0 0.2c-8.1 37.8-12.2 76.4-12.2 114.7 c0 68.1 12.4 134.8 37.4 198.4c24.4 62 53 113.5 98 162.9V1347.6z"/>
	<path id="XMLID_71_" fill="#DDE2E8" d="M1518.3 1226c-8.1-3.4-17.5 0.4-20.9 8.6c-3.9 9.4-8.2 18.8-12.7 27.9 c-3.9 7.9-0.6 17.5 7.3 21.4c2.3 1.1 4.7 1.6 7.1 1.6c5.9 0 11.6-3.3 14.4-8.9c4.8-9.7 9.3-19.7 13.5-29.6 C1530.2 1238.8 1526.4 1229.5 1518.3 1226z"/>
	<path id="XMLID_72_" fill="#DDE2E8" d="M909.5 1568.5l0.4 0.1c37.8 8.1 76.4 12.2 114.7 12.2c68.1 0 134.8-12.8 198.3-37.8 c26.4-10.4 22.8-10 47-24h-76.7c-1.5 0.8-2.2 1.2-2.4 1.3c0-0.1-0.4 0-2.6 0.9c-59.8 23.5-99.6 27.5-163.6 27.5 c-36.1 0-72.4-3.8-108-11.4l-0.4-0.1c-8.6-1.9-17.1 3.7-19 12.3S900.9 1566.6 909.5 1568.5z"/>
	<path id="XMLID_73_" fill="#DDE2E8" d="M696 1352.4V646.6c0-5.5-2.5-6.9-6-6.9s-6 1.5-6 6.9v705.9c0 5.5 2.5 6.9 6 6.9 S696 1357.9 696 1352.4z"/>
	<path id="XMLID_74_" fill="#DDE2E8" d="M1557.2 1150.1l0.1-0.5c8.1-37.8 12.1-76.4 12.1-114.7c0-68-12.8-134.7-37.7-198.2 c-24.2-61.7-38.6-86.6-71.8-136.2v44.5c39.6 88.9 82 165.2 77.3 290c-1.4 36.1-3.7 72.4-11.4 108l-0.1 0.5 c-1.9 8.6 3.7 17.1 12.3 19c1.1 0.2 2.3 0.4 3.4 0.4C1549 1162.7 1555.6 1157.6 1557.2 1150.1z"/>
</g>
<path id="XMLID_8_" d="M721.9 1413.1h51.1c1.3 0 2.4 1.1 2.4 2.4v2c0 1.3-1.1 2.4-2.4 2.4h-51.1c-1.3 0-2.4-1.1-2.4-2.4v-2 C719.5 1414.2 720.6 1413.1 721.9 1413.1z"/>
<path id="XMLID_10_" d="M826.9 1413.1h51.1c1.3 0 2.4 1.1 2.4 2.4v2c0 1.3-1.1 2.4-2.4 2.4h-51.1c-1.3 0-2.4-1.1-2.4-2.4v-2 C824.5 1414.2 825.6 1413.1 826.9 1413.1z"/>
<g id="Green_Line">
	<rect id="XMLID_11_" x="660.8" y="1170.2" fill="#52CBCC" width="760" height="130.1"/>
	<rect id="dark" x="684" y="1170.2" fill="#50B3BA" width="12.3" height="130.1"/>
</g>
<g id="XMLID_1_">
	<path id="XMLID_2_" d="M1061.4 880.8c1.5 1.3 3.7 1.3 5.2 0l75.1-63c1-0.9 1.6-2.3 1.4-3.6c-0.3-1.9-1.9-3.2-3.7-3.2H1094 c-0.9 0-1.7 0.3-2.4 0.9l-52.7 43.4c-1.9 1.6-1.9 4.6 0 6.2L1061.4 880.8z"/>
	<path id="XMLID_23_" d="M1397.1 601h-1.4H660.3h0h-20l-0.3-0.4v20v759.7v20v79.1v19.5h20.3H740v5v36.7l30.8-19.8l32-20.6l25.5 18.3 l31.7 22.7v-38.9v-3.2h535.7c24.3 0 44.3-19.3 44.3-43.5v-97.7V644.6v-1.4C1440 619.7 1420.6 601 1397.1 601z M660 1479v-79h20v0.4 v39.3v20.3h19.6H740v19H660z M1380 1410h-37.6c-1.3 0-2.4 1.2-2.4 2.5v2c0 1.3 1.1 2.5 2.4 2.5h37.6v5h-106.2c-2 0-3.8 2.1-3.8 4 v0.3c0 2 1.8 3.6 3.8 3.6H1380v4.9c0 2.6-2.2 5.1-4.8 5.1H860v-7v-20h-20h-80h-20v20v7h-40v-40h680V1410z M840 1502.2l-4.5-3.2l0 0 l-27.9-20h0l-4.2-3l-4.6 3h0l-31.1 20h0l-7.8 5v-5v-20v-19v-20v-7h80v7v20v19v20V1502.2z M1420 1455.5c0 13.2-11.1 23.5-24.3 23.5 H860v-19h515.2c13.7 0 24.8-11.4 24.8-25.1v-34.6v-0.4h-2.9c8.3 0 15.9-2 22.9-6.1V1455.5z M1420 1357.8 c0 12.5-10.4 22.2-22.9 22.2H660V621h735.7c13.2 0 24.3 10.4 24.3 23.6V1357.8z"/>
	<path id="XMLID_28_" d="M1054.4 897.9l0.9-1c1.4-1.3 1.4-3.5-0.1-4.8l-0.8-0.7l-93.6-79.6c-0.7-0.6-1.5-0.9-2.4-0.9h-45.3 c-1.8 0-3.4 1.3-3.7 3.2c-0.2 1.4 0.4 2.7 1.4 3.6l85.9 73.6c1.9 1.6 1.9 4.6 0 6.3l-86 73.2c-1.3 1.1-1.7 3.1-1 4.7 c0.6 1.4 2.1 2.4 3.6 2.4h47.1c0.9 0 1.8-0.5 2.4-1.1L1054.4 897.9C1054.4 897.9 1054.4 897.9 1054.4 897.9z"/>
	<path id="XMLID_29_" d="M1142.5 971.2l-76.2-62.8c-1.5-1.3-3.7-1.3-5.2 0l-21 18.5c-1.9 1.6-1.9 4.6 0 6.2l52.3 44 c0.7 0.6 1.5 0.9 2.4 0.9h45.3c1.8 0 3.4-1.3 3.7-3.2C1144.2 973.5 1143.6 972.1 1142.5 971.2z"/>
</g>
</svg>
