<?xml version="1.0" encoding="utf-8"?>
<!-- Generator: Adobe Illustrator 19.2.0, SVG Export Plug-In . SVG Version: 6.00 Build 0)  -->
<!DOCTYPE svg PUBLIC "-//W3C//DTD SVG 1.1//EN" "http://www.w3.org/Graphics/SVG/1.1/DTD/svg11.dtd">
<svg version="1.1" id="Layer_1" xmlns="http://www.w3.org/2000/svg" xmlns:xlink="http://www.w3.org/1999/xlink" x="0px" y="0px"
	 viewBox="0 0 48 32" enable-background="new 0 0 48 32" xml:space="preserve">
<g id="japanese">
	<path fill="#CC3E3E" d="M48,0H0v32h48V0L48,0z"/>
</g>
<g>
	<polygon fill="#FFDE00" points="9.1,6.5 8,3.2 6.9,6.5 3.4,6.5 6.3,8.6 5.2,11.9 8,9.8 10.8,11.9 9.7,8.6 12.6,6.5 	"/>
	<polygon fill="#FFDE00" points="15.8,3.8 16.4,4.8 16.5,3.6 17.6,3.3 16.5,2.9 16.6,1.7 15.9,2.6 14.8,2.1 15.4,3.1 14.6,4 	"/>
	<polygon fill="#FFDE00" points="18.8,6.8 18.9,8 19.5,6.9 20.6,7.1 19.8,6.3 20.3,5.3 19.3,5.8 18.5,5 18.7,6.1 17.6,6.6 	"/>
	<polygon fill="#FFDE00" points="20.7,10.7 19.5,10.7 19.1,9.6 18.8,10.7 17.7,10.8 18.6,11.4 18.3,12.5 19.2,11.8 20.2,12.5 
		19.8,11.4 	"/>
	<polygon fill="#FFDE00" points="16.6,12.9 15.8,13.8 14.8,13.4 15.4,14.4 14.7,15.3 15.8,15 16.4,15.9 16.5,14.8 17.6,14.5 
		16.5,14.1 	"/>
</g>
</svg>
