<svg xmlns="http://www.w3.org/2000/svg" xmlns:xlink="http://www.w3.org/1999/xlink" version="1.1" x="0px" y="0px" viewBox="0 0 77.5 45.5" enable-background="new 0 0 77.5 45.5" xml:space="preserve">
<style>
	.style0{
		fill:	#2D2E2F;
	}
</style><path d="M67.4 20.7c0.2-0.7 0.3-1.4 0.3-2c0-1.4-0.4-2.8-1.1-4c-0.7-1.2-1.7-2.3-3-3.2c-1.3-0.9-2.8-1.6-4.5-2.1 c-1.7-0.5-3.5-0.7-5.4-0.7c-1.2 0-2.5 0.1-3.9 0.3c-1.4 0.2-2.8 0.6-4.2 1.1c-1.4 0.5-2.9 1-4.3 1.7c-0.6 0.3-1.9 0.9-3.8 1.9 c-1.5-0.8-3-1.4-4.5-2c-1.6-0.6-3.1-1-4.5-1.3c-3.1-0.6-6-0.6-8.2 0.2c-1.2 0.5-2.2 1.1-2.9 2c-0.6 0.8-1 1.7-1 2.7 c-1.8 0.4-3.4 0.9-4.7 1.5c-1.4 0.7-2.5 1.6-3.3 2.5c-0.8 1-1.2 2.2-1.2 3.4c0 2.4 1.4 4.2 4 5.4c-0.6 1.2-0.8 2.4-0.8 3.5 c0 1.7 0.5 3.2 1.5 4.6c1 1.4 2.3 2.4 3.9 3.2c1.6 0.8 3.4 1.2 5.4 1.2c0.9 0 1.8-0.1 2.8-0.3c1-0.2 2.1-0.5 3.4-0.9 c1.3-0.4 2.7-1 4.2-1.6c1.5-0.6 3.3-1.5 5.5-2.5c0.5-0.2 1.1-0.5 1.9-0.9c0.7-0.3 1.4-0.7 2-1c1.5 0.9 3.1 1.7 4.7 2.3 c1.6 0.7 3.3 1.2 4.9 1.6c1.6 0.4 3.1 0.6 4.3 0.6c2.3 0 4.1-0.5 5.4-1.4c1.2-0.9 2-2.1 2.2-3.7c1.6-0.2 3.1-0.5 4.4-1 c1.4-0.6 2.5-1.4 3.3-2.3c0.8-1 1.2-2.1 1.2-3.2C71.1 23.9 69.8 22.1 67.4 20.7z M66.3 30.1c-1.3 0.7-2.8 1-4.3 1.1 c-0.2-0.5-0.4-1-0.8-1.5c-0.5-0.5-1.1-1-1.8-1.4c-0.7-0.4-1.5-0.7-2.4-0.9c-0.9-0.2-1.9-0.3-2.8-0.3c-1.1 0-2.4 0.2-3.8 0.7 c-0.7-0.4-1.5-0.9-2.3-1.3c-0.8-0.5-1.4-0.8-1.6-0.9l-1-0.6c-0.1-0.1-0.2-0.1-0.3-0.2c0.2-0.1 0.4-0.2 0.6-0.3 c0.5-0.2 0.8-0.4 1.1-0.5c0.7-0.3 1.4-0.6 2.2-0.9c1.1 0.6 2.3 1 3.4 1.3c1.2 0.3 2.3 0.5 3.4 0.5c1.7 0 3.1-0.4 4.2-1.2 c1-0.7 1.7-1.7 2-2.9c0.7 0.1 1.3 0.2 1.9 0.3c0.5 0.1 1 0.3 1.6 0.6c-0.4 0.6-0.8 1.2-1.4 1.6l-0.4 0.3l0.9 1.1l0.4-0.3 c0.7-0.5 1.3-1.2 1.8-2.1c0.8 0.4 1.5 0.9 1.9 1.5c0.5 0.7 0.8 1.4 0.8 2.3c0 0.8-0.3 1.6-0.8 2.3C68.2 29 67.4 29.6 66.3 30.1z M55.6 36.2c-1.5 0-3.3-0.4-5.4-1.2c-1.9-0.7-4-1.8-6.3-3.2c0.4-0.2 1-0.5 1.7-0.8c1.2-0.5 2-0.9 2.5-1c1.8 0.9 3.7 1.6 5.7 2 c2.1 0.5 4.1 0.8 6.1 0.8c0.2 0 0.4 0 0.5 0c-0.1 0.6-0.3 1-0.6 1.5c-0.4 0.6-1 1-1.8 1.4C57.4 36 56.6 36.2 55.6 36.2z M16.3 38 c-1.4-0.7-2.5-1.6-3.3-2.7c-0.8-1.1-1.2-2.4-1.2-3.7c0-1 0.3-2 0.8-3c1.2 0.3 2.3 0.5 3.1 0.5l0.1 0c0.1 0 0.2 0 0.2 0 c0 0 0 0 0.1 0c0.4 1.3 1.2 2.4 2.3 3.1c1.2 0.8 2.7 1.2 4.5 1.2c0.8 0 1.7-0.1 2.7-0.3c1-0.2 2-0.5 3-0.8c1-0.3 2.1-0.7 3.2-1.2 c1.1-0.4 2-0.9 2.9-1.4c0.3 0.2 0.6 0.4 1.1 0.7c0.7 0.4 1.4 0.9 2.3 1.4c0.4 0.3 0.8 0.5 1.1 0.7c-0.2 0.1-0.3 0.2-0.5 0.2 c-0.5 0.2-1.3 0.6-2.5 1.2l-3.2 1.5c-1.5 0.7-3.2 1.5-5.3 2.3c-1.4 0.5-2.7 0.8-3.7 1.1C21.2 39.3 18.6 39.1 16.3 38z M38.6 25.1 c0.2 0.1 0.5 0.3 0.8 0.4c-1.5 0.8-2.7 1.3-3.3 1.6c-1.7-0.9-3.3-1.7-4.6-2.2c0.7-0.3 1.3-0.6 1.7-0.8c0.9-0.5 1.6-0.8 2.1-1.1 c0.6 0.4 1.2 0.8 1.8 1.1C37.6 24.5 38.2 24.8 38.6 25.1z M41.1 22.2c-0.6-0.4-1.3-0.8-2.1-1.2c0.4-0.2 0.8-0.4 1.3-0.7 c0.8-0.4 1.4-0.7 1.8-0.9c1.7 1 3.3 1.8 4.9 2.6l-0.2 0.1c-0.4 0.2-0.8 0.3-1 0.4c-0.3 0.1-0.8 0.3-1.4 0.6c-0.4 0.2-0.8 0.4-1 0.5 c-0.3-0.2-0.7-0.4-1-0.6L41.1 22.2z M40.3 18.6c-0.3 0.2-0.7 0.3-1.2 0.6c-0.2 0.1-0.5 0.3-0.9 0.5c-0.3 0.2-0.6 0.3-1 0.5 c-1.5-0.8-3.1-1.6-4.8-2.3c0.2-0.1 0.4-0.2 0.6-0.3l0.1-0.1c0.6-0.3 0.9-0.5 1-0.5c0.3-0.1 0.5-0.3 0.8-0.4c0.2-0.1 0.5-0.2 0.7-0.4 c0.2-0.1 0.3-0.2 0.5-0.2C37.2 16.6 38.6 17.5 40.3 18.6C40.4 18.6 40.4 18.6 40.3 18.6z M17.5 27.5c0.2-0.8 0.7-1.5 1.4-2 c0.8-0.6 2-0.9 3.4-0.9c1.2 0 2.6 0.3 4.1 0.9c-0.7 0.3-1.5 0.6-2.3 0.9c-1.2 0.4-2.4 0.7-3.6 0.9C19.4 27.3 18.4 27.4 17.5 27.5z M28.4 26.3c0.8 0.4 1.7 0.8 2.6 1.3c0.9 0.5 1.6 0.8 2.1 1.2c-0.9 0.5-2.1 1-3.6 1.5c-1.4 0.6-2.7 1-3.7 1.2 c-1.1 0.2-2.1 0.4-3 0.4c-1.4 0-2.6-0.3-3.5-0.9c-0.8-0.5-1.3-1.1-1.6-1.9c1.6-0.1 3.3-0.3 5.1-0.8C24.6 27.7 26.5 27.1 28.4 26.3z M39.1 27.4c0.7-0.3 1.2-0.6 1.4-0.7c0.2-0.1 0.4-0.2 0.5-0.3l0.7 0.4c0.2 0.1 0.4 0.2 0.6 0.4c0.5 0.3 1.3 0.6 2.3 1.1 c0.6 0.3 1.1 0.5 1.6 0.8c-0.5 0.2-1 0.4-1.6 0.7c-0.4 0.2-0.8 0.3-0.9 0.4l-0.6 0.3c-0.2 0.1-0.4 0.2-0.8 0.4 c-0.2-0.1-0.5-0.3-0.9-0.5c-0.7-0.4-1.2-0.7-1.7-1c-1-0.6-1.7-1-2.1-1.2C38.1 27.9 38.5 27.7 39.1 27.4z M56.1 30.3 c-1.4-0.4-2.7-1-3.9-1.6c2.5-0.4 4.6-0.2 6.3 0.7c0.9 0.5 1.4 1 1.8 1.7C59.1 31.1 57.7 30.8 56.1 30.3z M60.4 20.5 c-0.2 0.8-0.7 1.4-1.3 1.8c-1.3 1-3.3 1.2-5.6 0.4c-0.6-0.2-1.2-0.5-1.8-0.8c3.1-1 5.8-1.5 8.1-1.5C59.9 20.5 60.2 20.5 60.4 20.5z M55.1 19.4c-1.5 0.3-3.2 0.8-5.3 1.5c-0.4-0.2-1.3-0.8-2.6-1.6l-1.8-1.1c-0.1 0-0.1-0.1-0.2-0.1c3.6-1.6 6.6-2.4 8.8-2.4 c1.1 0 2.2 0.2 3.1 0.5c0.9 0.3 1.7 0.8 2.2 1.4c0.4 0.4 0.7 0.9 0.9 1.5c-0.3 0-0.5 0-0.8 0C58.1 19 56.6 19.1 55.1 19.4z M18.7 16.8c2.8 0 5.6 0.6 8.5 1.8c-1 0.3-2.1 0.5-3.3 0.5c-1.5 0-2.7-0.3-3.8-0.8c-0.8-0.4-1.3-0.9-1.7-1.5H18.7z M66 20.2 c-1.2-0.5-2.5-0.8-4-1.1c-0.1-0.7-0.4-1.3-0.7-1.7c-0.4-0.6-0.9-1.1-1.6-1.5c-1.6-1.1-3.5-1.7-5.9-1.7c-2.5 0-5.9 1-10.3 2.9 c-0.2-0.1-0.3-0.2-0.4-0.3c-0.1 0-0.2-0.1-0.6-0.4c-0.6-0.3-1.8-1-3.4-1.9c2.9-1.5 5.1-2.5 6.7-3c3-0.9 5.7-1.4 7.9-1.4 c1.8 0 3.4 0.2 4.9 0.7c1.5 0.5 2.9 1.1 4 1.9c1.1 0.8 2 1.7 2.6 2.8c0.6 1 0.9 2.2 0.9 3.4C66.3 19.2 66.2 19.6 66 20.2z M33.2 15.9c-0.5 0.2-1 0.5-1.6 0.8c-0.4 0.2-0.7 0.4-0.9 0.5c-1.7-0.7-3.5-1.2-5.4-1.6c-2-0.4-3.9-0.6-5.6-0.6 c-0.7 0-1.3 0-1.9 0.1c0.2-1 0.6-1.7 1.4-2.3c1-0.7 2.3-1.1 4-1.1c1.7 0 3.7 0.4 5.9 1.1c2 0.6 3.8 1.5 5.4 2.4 C34.3 15.2 33.8 15.5 33.2 15.9z M19.1 19.5c1.3 0.7 2.9 1 4.7 1c1.6 0 3.3-0.3 5.3-1c0.7 0.4 2.2 1.2 4.4 2.5 c-1 0.6-1.3 0.7-1.4 0.8c-0.5 0.2-1.1 0.5-1.6 0.8c-0.4 0.2-0.8 0.4-1.1 0.5c-2.1-0.8-4.3-1.2-6.6-1.2c-1.9 0-3.5 0.4-4.7 1.3 c-1.1 0.8-1.8 1.9-2.1 3.3h-0.1c-0.8 0-1.6-0.1-2.4-0.3c0.3-0.4 0.7-0.8 1.2-1.2l0.4-0.3l-0.9-0.9l-0.3 0.2c-0.7 0.4-1.4 1-1.9 1.7 c-0.9-0.4-1.7-0.9-2.3-1.6c-0.6-0.8-1-1.6-1-2.5c0-0.9 0.3-1.8 1-2.6c0.7-0.9 1.7-1.6 2.9-2.1c1.2-0.5 2.5-0.9 4.1-1.1 C17.1 18 17.9 18.9 19.1 19.5z" class="style0"/>
</svg>
